<svg width="84" height="100" viewBox="0 0 84 100" fill="none" xmlns="http://www.w3.org/2000/svg">
<path d="M39.1362 100C39.1165 100 39.0969 100 39.0772 100C36.45 99.9665 34.3635 97.6422 33.4963 93.7819C33.1738 92.3405 32.8847 91.0171 32.6212 89.8136C32.047 87.1785 31.4925 84.6437 31.0402 83.1118C31.0343 83.1216 31.0284 83.1314 31.0244 83.1413C30.2909 84.4981 28.584 87.6603 26.2065 87.0152C24.1417 86.443 23.4534 83.6211 23.7524 76.9567C23.7779 76.408 23.8231 75.411 23.8526 74.3648C23.1565 75.6981 21.249 79.2535 18.4507 78.5613C16.7575 78.1464 14.5039 76.3097 14.5039 65.2147C14.5039 63.2404 14.443 61.8324 14.3624 60.8295C14.2444 61.0989 14.1165 61.3997 13.9809 61.738C12.7459 64.7408 11.2887 66.2707 9.52283 66.4222C7.9811 66.5461 6.61439 65.6434 5.40106 63.7143C-0.520045 54.2417 -1.35188 41.9335 2.85641 26.0826C4.14839 21.1929 5.89661 18.5804 8.35866 17.8616C10.3448 17.2825 12.5139 18.0701 14.8166 20.1959C15.1784 20.54 15.5403 20.9127 15.9414 21.3256C17.0918 22.5114 18.5254 23.9882 20.602 25.4936C22.9598 27.1789 25.005 27.819 26.1947 27.2526C27.2055 26.7708 27.8387 25.2557 27.9764 22.9863C28.5742 13.1578 30.871 0.0796544 43.8617 1.44361e-05C47.7691 -0.00490556 50.9155 1.24775 53.352 3.77961C57.0175 7.58969 58.6772 13.9385 58.2819 22.651C58.044 28.2929 59.1964 28.8701 59.2455 28.8917C59.2947 28.9183 60.7302 29.462 65.7507 24.5153C70.7416 19.602 74.2361 17.7909 77.0816 18.6365C79.3529 19.3129 80.8848 21.6049 81.7638 25.6431C84.1669 36.3781 84.4146 46.9176 82.5189 57.8542C81.3233 64.4262 79.4807 67.7142 76.883 67.9167C73.7091 68.1291 72.1339 63.7006 71.6226 62.2296C71.4476 61.7478 71.2844 61.325 71.1349 60.9514C71.131 61.1756 71.1271 61.4175 71.1271 61.6751C71.1113 62.6269 71.1448 63.6612 71.1782 64.8038C71.2745 67.9324 71.3925 71.8281 70.7102 76.4749C69.7918 82.9879 68.1262 86.2818 65.4754 86.8344C63.4086 87.267 61.3949 85.8727 59.4481 82.7087C58.4471 81.0961 57.7785 80.3331 57.395 79.9772C57.1571 80.6458 56.813 82.221 56.7422 85.798C56.5612 91.9413 55.5564 94.663 53.3775 94.9147C51.1495 95.1684 49.59 92.7279 48.009 86.7655L47.9382 86.4942C47.891 86.3211 47.8458 86.1481 47.8005 85.977C47.773 86.091 47.7455 86.2051 47.7179 86.3211C47.4092 87.6249 47.0395 89.1745 46.5872 90.9699C45.1635 96.6294 42.3809 100 39.1362 100ZM31.2545 78.6793C31.3607 78.6793 31.4669 78.6872 31.577 78.7029C33.7107 79.0057 34.22 81.3439 35.9112 89.0958C36.1727 90.2954 36.4598 91.6109 36.7823 93.0445C37.3349 95.5085 38.3555 96.6216 39.1185 96.6314C39.1224 96.6314 39.1264 96.6314 39.1303 96.6314C40.1647 96.6314 42.1233 94.9107 43.3229 90.1479C43.7692 88.3682 44.135 86.8324 44.4418 85.5404C45.6433 80.4963 45.9658 79.1414 47.7121 79.1178C49.4721 79.1473 49.7946 80.3528 51.1928 85.6328L51.2655 85.9042C51.9066 88.321 52.469 89.7546 52.878 90.5884C53.0845 89.6897 53.3028 88.1834 53.3756 85.7154C53.4935 79.6075 54.3568 76.998 56.4511 76.4237C58.7559 75.7748 60.7086 78.3509 62.3133 80.9388C63.7272 83.2357 64.6435 83.5798 64.7871 83.5385C65.1961 83.4539 66.5451 81.8847 67.377 75.995C68.0161 71.6334 67.904 67.9029 67.8135 64.906C67.7762 63.7064 67.7447 62.619 67.7604 61.6475C67.7604 57.921 68.1498 55.5258 70.0927 55.1856C72.0867 54.8277 73.3374 57.0833 74.7946 61.1009C75.7916 63.9582 76.6057 64.5009 76.7158 64.5639C76.706 64.4754 78.0786 63.4429 79.2034 57.2662C81.0185 46.7858 80.7806 36.6751 78.4739 26.3687C77.9036 23.7424 77.0678 22.1466 76.12 21.8635C75.2882 21.6167 73.1565 21.948 68.1144 26.9144C63.4715 31.4885 60.3153 33.0538 57.8788 31.9702C54.9546 30.6724 54.76 26.2291 54.9173 22.5036C54.9192 22.5026 54.9192 22.5006 54.9192 22.4996C55.2634 14.8549 53.8829 9.18844 50.9253 6.11482C49.1535 4.2732 46.7957 3.25554 43.8833 3.36862C38.2729 3.40303 32.397 5.78446 31.3391 23.1918C31.0598 27.7384 29.174 29.5623 27.6421 30.2928C25.9686 31.0922 23.0464 31.3803 18.6336 28.2261C16.3131 26.5437 14.7006 24.883 13.5246 23.6717C13.1549 23.2911 12.8226 22.947 12.5119 22.6501C11.1924 21.4348 10.0282 20.8802 9.30259 21.0946C8.76574 21.2509 7.38329 22.1339 6.11294 26.9439C2.15636 41.8479 2.85643 53.29 8.25445 61.9248C8.85423 62.8786 9.23376 63.0497 9.27899 63.0674C9.27506 63.0418 9.9476 62.6918 10.862 60.4637C11.9554 57.7657 13.1962 55.1719 15.3004 55.5691C17.2708 55.9546 17.8706 58.2082 17.8706 65.2148C17.8706 71.7278 18.7319 74.4003 19.2216 75.1495C19.5106 74.9115 20.0966 74.2842 20.9167 72.713C22.543 69.5529 23.6226 67.6218 25.473 68.1193C27.414 68.6365 27.41 70.835 27.115 77.1101C26.9794 80.166 27.1013 81.9162 27.2507 82.8955C27.4729 82.5671 27.7443 82.1266 28.0629 81.5367C28.6155 80.5199 29.6125 78.6793 31.2545 78.6793Z" fill="black"/>
<path d="M37.5532 21.4112C37.2464 21.4112 36.9436 21.3659 36.6466 21.2755C34.3871 20.5882 33.4137 17.5814 34.3773 14.2826C34.9574 12.3034 36.1334 10.6751 37.5197 9.92685C38.3889 9.45882 39.2955 9.34968 40.1371 9.60533C40.9926 9.86589 41.6907 10.4686 42.1528 11.3506C42.8863 12.7448 42.9551 14.7418 42.3357 16.6916C41.7556 18.6296 40.5914 20.2372 39.2286 20.9677C38.678 21.2627 38.1117 21.4112 37.5532 21.4112ZM39.15 12.8697C38.8019 13.0329 38.0291 13.8018 37.6102 15.2295C37.15 16.8017 37.4765 17.9069 37.6849 18.0819C37.8069 17.9954 38.6524 17.253 39.1185 15.6985C39.5767 14.2551 39.3545 13.1932 39.15 12.8697Z" fill="black"/>
<path d="M49.6727 21.4112C49.1063 21.4112 48.5301 21.2588 47.9677 20.9579C46.5833 20.2156 45.4093 18.6109 44.8272 16.6661C43.8499 13.325 44.8253 10.2946 47.0926 9.60536C47.9304 9.35168 48.8251 9.45689 49.6786 9.91705C51.0453 10.6555 52.2094 12.2877 52.7935 14.2827C53.3952 16.1774 53.3303 18.1517 52.6086 19.5263C52.1465 20.4083 51.4464 21.013 50.5851 21.2755C50.2862 21.366 49.9814 21.4112 49.6727 21.4112ZM48.0759 12.8747C47.8694 13.2021 47.6354 14.2689 48.0562 15.7094C48.5164 17.2472 49.4111 18.0033 49.6904 18.0426C49.7513 17.9069 50.062 16.8096 49.5724 15.2649C49.1456 13.8087 48.418 13.0477 48.0759 12.8747Z" fill="black"/>
<path d="M43.1872 37.5028C40.4046 37.5028 38.3063 34.1283 38.3063 29.6536C38.3063 25.1464 40.4046 21.7473 43.1872 21.7473C45.9698 21.7473 48.066 25.1464 48.066 29.6536C48.066 34.1283 45.9698 37.5028 43.1872 37.5028ZM43.1872 25.1159C42.7978 25.1631 41.673 26.7933 41.673 29.6536C41.673 32.6938 42.8883 34.1342 43.1872 34.1342C43.4861 34.1342 44.6994 32.6938 44.6994 29.6536C44.6994 26.8051 43.5765 25.168 43.1872 25.1159Z" fill="black"/>
</svg>
